<svg xmlns="http://www.w3.org/2000/svg"
shape-rendering="geometricPrecision"
width="4000" height="4000" viewBox="0 0 1024 1024">
  <metadata>null</metadata>

<path d="
M 244.88 361.067
C 244.919 360.906 244.959 360.745 244.999 360.584
C 245.833 359.082 247.684 359.337 249.157 359.365
C 252.438 359.425 255.723 359.406 259.005 359.411
C 273.172 359.434 287.339 359.408 301.505 359.409
C 305.672 359.41 309.839 359.449 314.005 359.426
C 314.415 359.424 317.842 359.564 317.869 359.473
C 317.069 351.692 318.722 343.233 320.852 335.786
C 329.856 304.299 360.598 279.587 393.754 279.816
C 424.291 280.027 451.854 299.531 463.468 327.582
C 467.654 337.692 470.196 348.404 469.745 359.399
C 469.978 359.719 470.765 359.504 471.126 359.499
C 472.253 359.484 473.38 359.438 474.508 359.433
C 479.509 359.409 484.509 359.398 489.51 359.388
C 501.678 359.363 513.845 359.348 526.013 359.339
C 528.825 359.337 531.636 359.31 534.447 359.348
C 535.837 359.367 537.188 359.235 538.079 360.514
C 539.084 361.957 538.381 365.321 538.384 367.002
C 538.393 372.683 538.588 378.428 538.351 384.098
C 538.97 384.407 540.225 383.937 540.92 383.867
C 543.28 383.629 545.629 383.382 548 383.263
C 555.366 382.893 562.694 383.184 570.016 384.034
C 590.909 386.462 610.658 393.865 629.093 403.722
C 634.835 406.792 640.505 410.114 645.919 413.729
C 647.175 414.567 650.828 416.095 651.122 417.615
C 650.798 419.684 649.344 421.504 648.376 423.323
C 646.131 427.54 643.767 431.692 641.491 435.892
C 634.137 449.462 626.256 462.747 618.943 476.335
C 616.517 480.844 613.971 485.331 611.439 489.783
C 610.415 491.583 609.321 494.296 607.449 495.337
C 606.115 495.482 604.444 493.847 603.381 493.15
C 600.388 491.186 597.196 489.446 594.013 487.809
C 585.194 483.274 576.461 479.818 566.578 478.624
C 561.049 477.956 554.689 479.024 550.23 482.532
C 548.778 483.674 547.549 485.174 546.671 486.796
C 545.964 488.099 545.421 489.522 545.17 490.988
C 543.573 500.333 552.002 505.391 558.773 509.9
C 583.962 526.675 614.496 536.943 635.28 559.751
C 661.254 588.254 666.399 632.289 649.78 666.811
C 644.375 678.039 636.578 687.559 627.436 695.913
C 593.417 724.247 544.68 731.116 502.283 720.889
C 492.266 718.472 482.618 715.368 473.119 711.357
C 470.347 710.186 467.631 708.823 464.978 707.406
C 463.658 706.701 461.952 705.398 460.486 705.192
C 447.583 711.508 433.431 715.445 419.073 716.735
C 409.151 717.627 398.965 716.984 389.012 716.951
C 370.962 716.892 352.865 716.871 335.136 713.013
C 307.382 706.974 281.754 690.497 265.261 667.338
C 253.483 650.799 247.443 630.523 245.465 610.507
C 244.694 602.698 244.94 594.733 244.952 586.897
C 244.968 576.767 244.952 566.636 244.945 556.506
C 244.914 513.006 244.951 469.506 244.935 426.006
C 244.93 411.339 244.914 396.673 244.927 382.006
C 244.934 375.095 244.364 367.951 244.88 361.067 Z
M 248.455 364.122
C 247.844 368.934 248.364 374.146 248.355 379.002
C 248.336 389.002 248.386 399.002 248.372 409.003
C 248.327 439.668 248.314 470.334 248.344 500.999
C 248.366 523.334 248.372 545.668 248.369 568.003
C 248.367 584.677 247.363 601.795 249.779 618.334
C 254.526 650.834 273.522 679.342 301.822 696.024
C 310.879 701.362 320.793 705.888 331.022 708.447
C 350.29 713.268 369.757 713.436 389.507 713.425
C 398.574 713.42 407.801 713.929 416.848 713.291
C 430.565 712.324 444.381 709.146 456.937 703.477
C 456.796 702.866 455.499 702.279 454.957 701.934
C 452.824 700.578 450.485 698.788 448.129 697.879
C 440.373 700.811 432.784 703.513 424.501 704.762
C 412.796 706.526 400.797 705.726 389.002 705.732
C 372.072 705.74 354.625 705.955 338.27 700.853
C 326.249 697.103 315.15 692.341 304.49 685.59
C 277.152 668.277 261.657 638.991 257.522 607.491
C 255.453 591.735 256.673 575.368 256.646 559.508
C 256.6 532.673 256.595 505.839 256.589 479.004
C 256.582 453.837 256.599 428.67 256.587 403.504
C 256.583 396.036 256.641 388.568 256.637 381.1
C 256.635 378.031 255.776 373.687 256.806 370.795
C 259.116 369.802 262.041 370.255 264.508 370.267
C 269.174 370.288 273.841 370.258 278.507 370.257
C 295.08 370.253 311.729 369.746 328.293 370.2
C 327.919 367.053 328.197 363.674 328.255 360.506
C 328.47 348.584 330.762 336.893 336.954 326.537
C 352.983 299.727 386.843 286.717 416.377 297.707
C 423.604 300.396 430.477 304.047 436.392 309.034
C 442.886 314.509 448.406 321.078 452.319 328.657
C 458.953 341.507 460.799 355.897 460.097 370.231
C 464.161 369.864 468.42 370.188 472.504 370.198
C 480.17 370.216 487.837 370.202 495.503 370.196
C 502.337 370.191 509.17 370.202 516.004 370.212
C 519.657 370.217 523.438 369.901 527.066 370.344
C 527.792 372.315 527.583 374.736 527.583 376.813
C 527.583 379.797 527.71 382.783 527.715 385.759
C 528.154 386.058 529.096 385.566 529.611 385.443
C 531.292 385.042 533.071 384.951 534.774 384.67
C 535.536 383.583 534.961 380.091 534.96 378.739
C 534.952 373.525 535.034 368.25 534.776 363.049
C 534.325 362.443 531.334 362.847 530.513 362.846
C 526.346 362.837 522.178 362.868 518.011 362.87
C 505.845 362.874 493.679 362.908 481.513 362.896
C 478.181 362.892 474.848 362.877 471.516 362.887
C 470.051 362.891 468.184 363.236 466.835 362.567
C 465.982 361.07 466.439 358.714 466.418 357.039
C 466.372 353.392 466.167 349.758 465.523 346.161
C 463.774 336.398 460.107 326.789 454.942 318.327
C 441.426 296.182 415.174 281.172 388.927 283.377
C 371.282 284.86 354.848 293.309 342.45 305.794
C 332.018 315.72 325.52 329.619 322.501 343.53
C 321.586 347.744 321.21 352.18 321.17 356.484
C 321.153 358.32 321.806 361.119 320.711 362.707
C 319.146 363.378 316.694 362.941 315.007 362.947
C 310.839 362.963 306.672 362.955 302.505 362.951
C 290.339 362.937 278.171 362.916 266.005 362.941
C 262.339 362.949 258.672 362.949 255.006 362.968
C 252.895 362.979 250.626 362.756 248.575 363.312
C 248.535 363.582 248.495 363.852 248.455 364.122 Z
M 259.975 375.105
C 259.366 381.628 259.893 388.447 259.887 395
C 259.876 407.833 259.875 420.665 259.859 433.498
C 259.81 473.332 259.883 513.166 259.9 553
C 259.905 563.472 259.888 573.945 259.945 584.417
C 259.987 592.281 259.868 600.085 260.864 607.903
C 263.135 625.737 269.549 643.392 280.227 657.907
C 298.858 683.235 328.807 697.78 359.594 701.506
C 371.586 702.958 383.948 702.237 396.004 702.228
C 408.896 702.219 421.29 702.361 433.895 699.272
C 436.751 698.572 439.672 697.746 442.399 696.643
C 442.782 696.488 444.907 696.202 444.803 695.706
C 441.738 693.287 438.341 690.803 434.964 688.829
C 433.365 688.889 431.645 689.737 430.07 690.104
C 426.795 690.866 423.408 691.427 420.055 691.7
C 409.409 692.566 398.679 692.206 388.003 692.177
C 376.602 692.147 365.166 692.432 353.907 690.36
C 339.228 687.659 325.105 682.261 312.62 674.039
C 290.939 659.762 276.04 636.789 271.382 611.34
C 269.543 601.295 269.688 591.181 269.69 581.014
C 269.693 569.181 269.699 557.348 269.647 545.516
C 269.476 506.517 269.672 467.513 269.691 428.514
C 269.697 415.846 269.733 403.179 269.721 390.512
C 269.717 386.843 269.743 383.174 269.782 379.505
C 269.801 377.715 270.148 375.515 269.718 373.78
C 267.493 373.647 265.235 373.742 263.006 373.771
C 262.01 373.783 260.921 373.642 260.03 374.117
C 260.02 374.871 260.049 374.542 259.975 375.105 Z
M 385.531 616.495
C 382.19 616.173 377.969 613.366 375.223 611.487
C 372.458 609.593 369.854 607.57 367.679 604.994
C 357.432 592.853 359.429 576.762 359.385 562.003
C 359.262 520.004 359.333 478.003 359.292 436.004
C 359.278 422.004 359.256 408.005 359.271 394.005
C 359.279 387.406 358.47 380.249 359.288 373.714
C 354.139 374.211 348.735 373.555 343.546 373.785
C 340.152 373.43 335.257 372.991 331.945 373.824
C 331.751 377.035 331.482 380.841 331.968 384.022
C 336.273 383.81 340.555 386.694 343.505 389.487
C 347.691 395.066 349.852 401.301 347.138 408.144
C 346.563 409.596 345.77 411.01 344.849 412.271
C 344.165 413.209 342.965 414.137 342.87 415.35
C 342.352 415.096 341.648 415.655 341.181 415.956
C 339.855 416.807 338.565 417.648 337.101 418.244
C 333.276 419.801 328.574 419.686 324.736 418.25
C 313.837 414.172 309.599 400.252 316.56 390.905
C 319.739 386.636 323.393 385.447 328.203 383.945
C 328.495 383.325 328.221 382.197 328.228 381.501
C 328.248 379.357 329.007 375.698 328.254 373.723
C 316.847 373.95 305.415 373.756 294.004 373.745
C 287.178 373.738 280.207 374.147 273.407 373.808
C 272.672 379.907 273.19 386.353 273.173 392.495
C 273.141 404.661 273.176 416.828 273.182 428.995
C 273.199 464.828 273.125 500.662 273.195 536.496
C 273.222 549.995 273.207 563.495 273.22 576.995
C 273.227 584.171 272.837 591.461 273.334 598.622
C 274.116 609.899 276.709 620.955 281.068 631.397
C 293.317 660.744 322.245 680.613 352.844 686.65
C 365.542 689.156 378.631 688.586 391.5 688.583
C 400.528 688.581 409.705 689.087 418.706 688.315
C 423.059 687.941 427.56 687.532 431.675 685.95
C 433.602 685.209 434.305 682.834 435.288 681.188
C 437.684 677.182 440.01 673.137 442.455 669.161
C 450.214 656.544 457.646 643.716 465.244 631.005
C 467.444 627.323 469.579 623.594 471.726 619.88
C 472.606 618.357 473.494 615.963 474.972 614.959
C 478.006 614.983 480.783 618.506 483.108 620.253
C 487.744 623.737 492.401 627.024 497.493 629.828
C 499.357 630.855 501.813 632.752 503.934 633.053
C 504.578 632.461 504.774 631.406 505.143 630.621
C 506.308 628.141 507.206 625.438 507.948 622.802
C 510.563 613.505 511.638 604.225 511.679 594.589
C 511.691 591.802 511.677 589.033 511.539 586.249
C 511.493 585.298 511.824 583.978 511.418 583.114
C 504.135 578.844 496.544 575.152 489.447 570.55
C 482.489 566.038 476.091 560.462 470.217 554.626
C 443.888 528.467 434.93 489.677 444.909 454.191
C 447.438 445.196 451.929 436.582 457.268 428.96
C 459.105 426.336 461.096 423.832 463.157 421.38
C 464.068 420.297 465.286 419.308 465.942 418.049
C 464.745 417.636 462.695 419.061 461.436 419.285
C 458.267 419.846 454.902 419.63 451.934 418.32
C 440.35 413.208 436.992 398.721 445.956 389.411
C 447.807 387.489 450.085 386.001 452.644 385.206
C 453.687 384.883 455.664 384.978 456.477 384.333
C 456.562 380.792 456.48 377.252 456.626 373.712
C 445.986 373.996 435.296 373.641 424.65 373.738
C 423.69 378.408 424.831 383.61 424.556 388.364
C 423.7 403.161 424.652 418.178 424.659 432.998
C 424.68 474.998 424.623 516.998 424.695 558.997
C 424.704 564.276 424.667 569.558 424.715 574.837
C 424.825 586.784 424.68 599.835 415.326 608.738
C 413.29 610.675 411.009 612.25 408.539 613.582
C 405.572 615.182 402.232 616.105 398.927 616.677
C 394.312 617.476 390.139 617.162 385.531 616.495 Z
M 316.947 398.582
C 316.326 401.469 316.767 404.723 317.927 407.426
C 318.881 409.648 320.474 411.558 322.389 413.014
C 324.1 414.315 326.103 415.213 328.222 415.605
C 330.088 415.95 332.006 415.867 333.855 415.455
C 346.322 412.676 348.116 395.908 337.701 389.432
C 336.009 388.38 334.268 387.839 332.294 387.638
C 331.856 390.85 333.057 394.801 331.913 397.837
C 331.017 398.375 330.118 398.524 329.104 398.271
C 327.574 396.667 328.33 392.578 328.325 390.504
C 328.323 389.776 328.643 388.255 328.152 387.71
C 321.906 389.048 318.96 392.763 316.947 398.582 Z
M 331.974 356.621
C 331.436 361.039 331.888 365.676 331.905 370.118
C 332.223 370.433 333.065 370.133 333.502 370.133
C 335.502 370.134 337.503 370.177 339.504 370.145
C 344.733 370.062 349.962 370.112 355.191 370.087
C 357.324 370.077 360.341 369.51 362.219 370.682
C 363.034 371.893 362.667 373.612 362.657 374.995
C 362.632 378.495 362.635 381.995 362.632 385.495
C 362.622 398.661 362.643 411.828 362.669 424.994
C 362.745 463.994 362.665 502.993 362.751 541.993
C 362.773 551.994 362.783 561.995 362.795 571.995
C 362.805 580.17 362.539 588.296 366.115 595.888
C 373.78 612.164 397.252 620.356 411.617 607.342
C 414.016 605.169 416.019 602.677 417.565 599.827
C 419.621 596.035 420.773 591.827 421.17 587.547
C 421.783 580.942 421.212 574.139 421.204 567.51
C 421.189 555.177 421.243 542.845 421.189 530.512
C 421.037 496.012 421.139 461.509 421.089 427.008
C 421.07 414.505 420.994 402.003 420.951 389.503
C 420.93 383.519 420.077 376.771 421.111 370.876
C 423.403 369.225 428.281 370.158 431.005 370.16
C 439.442 370.166 447.924 369.919 456.356 370.189
C 456.851 368.755 456.459 366.326 456.455 364.788
C 456.443 360.332 456.447 355.886 455.81 351.468
C 454.816 344.577 453.067 337.948 450.065 331.646
C 443.8 318.493 432.221 308.314 418.994 302.534
C 409.666 298.458 399.146 296.324 388.959 297.383
C 365.886 299.782 342.743 315.609 335.369 338.254
C 333.865 342.247 332.903 346.765 332.383 350.993
C 332.157 352.838 332.396 354.812 331.974 356.621 Z
M 547.624 508.739
C 546.178 507.595 544.303 506.887 542.706 505.968
C 538.517 503.559 534.469 500.656 531.322 496.955
C 529.749 495.105 528.506 492.981 527.698 490.694
C 526.972 488.638 526.655 486.527 526.502 484.359
C 525.693 472.939 537.111 466.264 546.781 464.523
C 565.284 461.193 585.536 469.651 600.006 480.728
C 600.649 480.504 601.584 477.717 601.976 477.04
C 604.161 473.264 606.27 469.442 608.471 465.674
C 616.064 452.673 623.602 439.542 630.845 426.344
C 632.65 423.055 634.493 419.72 636.482 416.539
C 636.913 415.849 638.628 413.929 638.468 413.156
C 634.178 411.206 630.263 408.351 626.103 406.136
C 617.176 401.384 608.001 397.136 598.385 393.965
C 560.764 381.557 516.631 384.59 483.443 407.398
C 468.593 417.604 456.309 432.796 449.985 449.746
C 438.215 481.292 444.554 519.751 466.449 545.39
C 471.442 551.237 476.864 556.715 482.951 561.429
C 484.715 562.794 486.49 564.558 488.495 565.548
C 489.895 567.078 491.937 568.095 493.679 569.185
C 497.377 571.5 501.114 573.673 504.956 575.741
C 514.616 580.942 524.352 586.046 534.076 591.12
C 542.008 595.259 550.609 599.961 556.227 607.12
C 563.907 616.907 564.384 631.925 554.042 640.05
C 552.315 641.407 550.303 642.587 548.227 643.328
C 537.928 647.002 525.87 644.552 515.782 641.333
C 506.49 638.368 497.361 634.364 489.191 628.982
C 485.966 626.859 482.8 624.611 479.805 622.174
C 478.866 621.41 477.384 619.563 476.21 619.386
C 467.313 632.637 459.735 646.955 451.537 660.658
C 448.161 666.301 444.779 671.943 441.49 677.639
C 440.038 680.153 437.89 682.844 436.933 685.566
C 450.29 695.967 465.277 705.125 481.178 711.109
C 523.208 726.926 573.244 726.33 612.311 702.847
C 624.725 695.385 635.574 684.587 643.021 672.156
C 659.904 643.972 660.435 606.274 644.194 577.72
C 634.848 561.288 620.261 549.401 604.158 539.983
C 592.165 532.969 579.965 526.378 567.849 519.589
C 563.18 516.973 558.582 514.3 553.826 511.847
C 551.8 510.802 549.788 509.465 547.624 508.739 Z
M 444.405 399.581
C 443.862 402.527 444.402 405.74 445.726 408.41
C 446.862 410.703 448.729 412.636 450.885 413.992
C 452.789 415.189 455.001 415.923 457.25 416.052
C 461.832 416.315 466.355 414.67 469.254 410.991
C 475.868 402.596 471.83 388.905 460.445 388
C 460 388.765 460.222 390.104 460.236 390.988
C 460.27 393.278 460.766 396.285 460.041 398.47
C 459.346 399.067 458.196 398.955 457.338 398.886
C 456.581 398.041 456.648 396.785 456.633 395.701
C 456.598 393.185 456.643 390.65 456.665 388.139
C 449.921 388.965 446.217 393.26 444.405 399.581 Z
M 460.036 374.618
C 459.805 377.796 460.264 381.076 460.095 384.284
C 468.942 385.04 476.004 392.515 476.119 401.51
C 476.159 404.679 474.887 407.257 473.795 410.125
C 473.82 410.649 475.299 409.142 475.568 408.905
C 476.678 407.927 477.879 407.077 479.077 406.214
C 482.828 403.512 486.804 400.946 490.861 398.724
C 497.663 394.998 504.981 391.923 512.398 389.647
C 515.017 388.844 517.656 388.154 520.296 387.431
C 521.439 387.118 523.213 387.024 524.199 386.383
C 524.385 382.274 524.029 377.976 523.991 373.844
C 519.436 373.3 514.593 373.753 510.003 373.729
C 498.838 373.672 487.672 373.7 476.506 373.67
C 471.231 373.656 465.715 374.12 460.472 373.553
C 460.052 374.368 460.159 374 460.036 374.618 Z
M 507.399 634.076
C 507.328 634.3 507.258 634.524 507.188 634.748
C 509.255 635.062 511.233 636.934 513.318 636.872
C 516.913 627.422 520.375 618.123 521.798 608.027
C 522.706 601.589 522.427 595.034 522.473 588.552
C 520.718 587.647 518.925 586.816 517.174 585.905
C 516.936 585.781 515.39 584.914 515.269 584.958
C 514.612 585.199 514.907 588.378 514.926 588.979
C 515.051 592.999 515.104 596.915 514.867 600.927
C 514.229 611.743 512.229 621.86 508.332 631.967
C 508.061 632.691 507.753 633.389 507.399 634.076 Z
M 516.94 637.076
C 516.625 637.713 516.704 637.376 516.703 638.087
C 519.224 638.835 521.827 639.827 524.474 640.019
C 527.107 632.642 529.876 625.541 531.491 617.835
C 533.104 610.142 533.234 602.434 533.303 594.615
C 531.421 593.089 528.376 591.402 526.007 590.834
C 525.318 592.778 525.698 595.267 525.708 597.311
C 525.726 600.83 525.502 604.288 525.166 607.787
C 524.197 617.866 521.157 627.919 516.94 637.076 Z
M 527.936 640.098
C 527.861 640.285 527.786 640.472 527.711 640.659
C 529.841 641.435 532.136 641.316 534.366 641.493
C 543.906 642.253 554.868 639.092 557.826 628.833
C 558.31 627.155 558.621 625.477 558.64 623.727
C 558.664 621.492 558.338 619.237 557.672 617.102
C 556.79 614.272 555.401 611.583 553.588 609.237
C 550.371 605.075 545.917 601.789 541.377 599.203
C 540.264 598.569 537.733 596.388 536.626 597.158
C 537.556 609.998 533.991 622.161 530.323 634.285
C 529.638 636.274 528.911 638.231 527.936 640.098 Z
M 530.388 481.065
C 528.623 489.614 534.332 496.123 540.845 500.691
C 541.991 501.495 543.157 502.312 544.265 503.164
C 544.668 503.474 545.165 504.098 545.683 504.136
C 545.411 502.911 543.615 501.601 542.943 500.464
C 541.53 498.077 541.15 495.138 541.324 492.412
C 541.918 483.113 550.273 476.627 558.984 475.409
C 571.742 473.624 584.285 479.318 595.406 484.839
C 599.258 486.751 602.617 489.561 606.475 491.43
C 608.655 488.122 610.399 484.451 612.358 481.005
C 617.836 471.369 623.029 461.562 628.593 451.976
C 632.494 445.255 636.065 438.349 639.905 431.594
C 642.295 427.391 645.309 423.048 647.007 418.52
C 645.166 417.442 643.402 416.105 641.591 414.954
C 640.435 415.843 639.768 417.749 639.038 419.002
C 637.162 422.224 635.428 425.538 633.484 428.719
C 625.755 441.363 618.557 454.441 611.36 467.394
C 609.002 471.638 606.609 475.875 604.183 480.081
C 603.269 481.665 602.327 484.063 600.605 484.92
C 598.855 484.45 597.311 482.917 595.863 481.884
C 592.91 479.778 589.654 477.95 586.472 476.216
C 575.448 470.211 562.592 466.146 549.945 467.597
C 543.459 468.342 536.49 470.436 532.556 476.039
C 531.452 477.611 531.019 479.302 530.388 481.065 Z"
opacity="1" fill="rgb(8,8,9)" fill-rule="evenodd" />
<path d="
M 259.975 375.105
C 260.049 374.542 260.02 374.871 260.03 374.117
C 260.921 373.642 262.01 373.783 263.006 373.771
C 265.235 373.742 267.493 373.647 269.718 373.78
C 270.148 375.515 269.801 377.715 269.782 379.505
C 269.743 383.174 269.717 386.843 269.721 390.512
C 269.733 403.179 269.697 415.846 269.691 428.514
C 269.672 467.513 269.476 506.517 269.647 545.516
C 269.699 557.348 269.693 569.181 269.69 581.014
C 269.688 591.181 269.543 601.295 271.382 611.34
C 276.04 636.789 290.939 659.762 312.62 674.039
C 325.105 682.261 339.228 687.659 353.907 690.36
C 365.166 692.432 376.602 692.147 388.003 692.177
C 398.679 692.206 409.409 692.566 420.055 691.7
C 423.408 691.427 426.795 690.866 430.07 690.104
C 431.645 689.737 433.365 688.889 434.964 688.829
C 438.341 690.803 441.738 693.287 444.803 695.706
C 444.907 696.202 442.782 696.488 442.399 696.643
C 439.672 697.746 436.751 698.572 433.895 699.272
C 421.29 702.361 408.896 702.219 396.004 702.228
C 383.948 702.237 371.586 702.958 359.594 701.506
C 328.807 697.78 298.858 683.235 280.227 657.907
C 269.549 643.392 263.135 625.737 260.864 607.903
C 259.868 600.085 259.987 592.281 259.945 584.417
C 259.888 573.945 259.905 563.472 259.9 553
C 259.883 513.166 259.81 473.332 259.859 433.498
C 259.875 420.665 259.876 407.833 259.887 395
C 259.893 388.447 259.366 381.628 259.975 375.105 Z"
opacity="1" fill="rgb(8,215,240)" fill-rule="evenodd" />
<path d="
M 342.87 415.35
C 343.936 453.862 343.15 492.475 343.291 531.014
C 343.332 542.167 343.302 553.321 343.304 564.475
C 343.305 571.126 342.844 577.969 343.947 584.553
C 347.266 604.358 366.131 617.087 385.531 616.495
C 390.139 617.162 394.312 617.476 398.927 616.677
C 402.232 616.105 405.572 615.182 408.539 613.582
C 411.009 612.25 413.29 610.675 415.326 608.738
C 424.68 599.835 424.825 586.784 424.715 574.837
C 424.667 569.558 424.704 564.276 424.695 558.997
C 424.623 516.998 424.68 474.998 424.659 432.998
C 424.652 418.178 423.7 403.161 424.556 388.364
C 424.831 383.61 423.69 378.408 424.65 373.738
C 435.296 373.641 445.986 373.996 456.626 373.712
C 456.48 377.252 456.562 380.792 456.477 384.333
C 455.664 384.978 453.687 384.883 452.644 385.206
C 450.085 386.001 447.807 387.489 445.956 389.411
C 436.992 398.721 440.35 413.208 451.934 418.32
C 454.902 419.63 458.267 419.846 461.436 419.285
C 462.695 419.061 464.745 417.636 465.942 418.049
C 465.286 419.308 464.068 420.297 463.157 421.38
C 461.096 423.832 459.105 426.336 457.268 428.96
C 451.929 436.582 447.438 445.196 444.909 454.191
C 434.93 489.677 443.888 528.467 470.217 554.626
C 476.091 560.462 482.489 566.038 489.447 570.55
C 496.544 575.152 504.135 578.844 511.418 583.114
C 511.824 583.978 511.493 585.298 511.539 586.249
C 511.677 589.033 511.691 591.802 511.679 594.589
C 511.638 604.225 510.563 613.505 507.948 622.802
C 507.206 625.438 506.308 628.141 505.143 630.621
C 504.774 631.406 504.578 632.461 503.934 633.053
C 501.813 632.752 499.357 630.855 497.493 629.828
C 492.401 627.024 487.744 623.737 483.108 620.253
C 480.783 618.506 478.006 614.983 474.972 614.959
C 473.494 615.963 472.606 618.357 471.726 619.88
C 469.579 623.594 467.444 627.323 465.244 631.005
C 457.646 643.716 450.214 656.544 442.455 669.161
C 440.01 673.137 437.684 677.182 435.288 681.188
C 434.305 682.834 433.602 685.209 431.675 685.95
C 427.56 687.532 423.059 687.941 418.706 688.315
C 409.705 689.087 400.528 688.581 391.5 688.583
C 378.631 688.586 365.542 689.156 352.844 686.65
C 322.245 680.613 293.317 660.744 281.068 631.397
C 276.709 620.955 274.116 609.899 273.334 598.622
C 272.837 591.461 273.227 584.171 273.22 576.995
C 273.207 563.495 273.222 549.995 273.195 536.496
C 273.125 500.662 273.199 464.828 273.182 428.995
C 273.176 416.828 273.141 404.661 273.173 392.495
C 273.19 386.353 272.672 379.907 273.407 373.808
C 280.207 374.147 287.178 373.738 294.004 373.745
C 305.415 373.756 316.847 373.95 328.254 373.723
C 329.007 375.698 328.248 379.357 328.228 381.501
C 328.221 382.197 328.495 383.325 328.203 383.945
C 323.393 385.447 319.739 386.636 316.56 390.905
C 309.599 400.252 313.837 414.172 324.736 418.25
C 328.574 419.686 333.276 419.801 337.101 418.244
C 338.565 417.648 339.855 416.807 341.181 415.956
C 341.648 415.655 342.352 415.096 342.87 415.35 Z"
opacity="1" fill="rgb(4,218,240)" fill-rule="evenodd" />
<path d="
M 343.546 373.785
C 343.127 377.426 343.428 381.32 343.296 385.002
C 343.247 386.376 342.818 388.242 343.505 389.487
C 340.555 386.694 336.273 383.81 331.968 384.022
C 331.482 380.841 331.751 377.035 331.945 373.824
C 335.257 372.991 340.152 373.43 343.546 373.785 Z"
opacity="1" fill="rgb(3,212,242)" fill-rule="evenodd" />
<path d="
M 338.507 353.616
C 340.305 343.713 343.027 334.659 349.268 326.525
C 361.565 310.5 382.257 301.277 402.444 304.55
C 413.172 306.29 423.326 311.357 431.41 318.568
C 440.727 326.878 446.75 338.095 449.017 350.309
C 449.552 353.188 449.677 356.063 449.801 358.98
C 449.854 360.204 450.063 361.789 448.947 362.608
C 446.472 363.445 443.112 362.841 440.51 362.833
C 434.843 362.815 429.177 362.831 423.51 362.845
C 404.178 362.892 384.845 362.859 365.512 362.901
C 359.012 362.915 352.512 362.89 346.011 362.892
C 344.143 362.893 340.412 363.667 338.886 362.587
C 337.294 360.307 338.17 356.217 338.507 353.616 Z
M 342 355.112
C 341.776 356.534 341.733 357.977 341.615 359.41
C 344.108 360.187 347.878 359.408 350.506 359.413
C 357.34 359.424 364.174 359.426 371.008 359.411
C 387.677 359.375 404.345 359.396 421.013 359.352
C 429.341 359.329 438.078 358.55 446.364 359.323
C 446.238 351.107 444.335 342.893 440.483 335.611
C 431.343 318.329 412.057 306.958 392.495 307.461
C 384.855 307.658 377.245 309.797 370.452 313.248
C 358.991 319.073 349.682 329.291 345.046 341.284
C 343.287 345.834 343.113 350.468 342 355.112 Z"
opacity="1" fill="rgb(7,5,5)" fill-rule="evenodd" />
<path d="
M 343.505 389.487
C 342.818 388.242 343.247 386.376 343.296 385.002
C 343.428 381.32 343.127 377.426 343.546 373.785
C 348.735 373.555 354.139 374.211 359.288 373.714
C 358.47 380.249 359.279 387.406 359.271 394.005
C 359.256 408.005 359.278 422.004 359.292 436.004
C 359.333 478.003 359.262 520.004 359.385 562.003
C 359.429 576.762 357.432 592.853 367.679 604.994
C 369.854 607.57 372.458 609.593 375.223 611.487
C 377.969 613.366 382.19 616.173 385.531 616.495
C 366.131 617.087 347.266 604.358 343.947 584.553
C 342.844 577.969 343.305 571.126 343.304 564.475
C 343.302 553.321 343.332 542.167 343.291 531.014
C 343.15 492.475 343.936 453.862 342.87 415.35
C 342.965 414.137 344.165 413.209 344.849 412.271
C 345.77 411.01 346.563 409.596 347.138 408.144
C 349.852 401.301 347.691 395.066 343.505 389.487 Z"
opacity="1" fill="rgb(249,220,10)" fill-rule="evenodd" />
<path d="
M 488.495 565.548
C 482.513 541.358 499.139 515.701 522.251 508.622
C 530.636 506.055 539.25 506.809 547.624 508.739
C 549.788 509.465 551.8 510.802 553.826 511.847
C 558.582 514.3 563.18 516.973 567.849 519.589
C 579.965 526.378 592.165 532.969 604.158 539.983
C 620.261 549.401 634.848 561.288 644.194 577.72
C 660.435 606.274 659.904 643.972 643.021 672.156
C 635.574 684.587 624.725 695.385 612.311 702.847
C 573.244 726.33 523.208 726.926 481.178 711.109
C 465.277 705.125 450.29 695.967 436.933 685.566
C 437.89 682.844 440.038 680.153 441.49 677.639
C 444.779 671.943 448.161 666.301 451.537 660.658
C 459.735 646.955 467.313 632.637 476.21 619.386
C 477.384 619.563 478.866 621.41 479.805 622.174
C 482.8 624.611 485.966 626.859 489.191 628.982
C 497.361 634.364 506.49 638.368 515.782 641.333
C 525.87 644.552 537.928 647.002 548.227 643.328
C 550.303 642.587 552.315 641.407 554.042 640.05
C 564.384 631.925 563.907 616.907 556.227 607.12
C 550.609 599.961 542.008 595.259 534.076 591.12
C 524.352 586.046 514.616 580.942 504.956 575.741
C 501.114 573.673 497.377 571.5 493.679 569.185
C 491.937 568.095 489.895 567.078 488.495 565.548 Z"
opacity="1" fill="rgb(248,2,3)" fill-rule="evenodd" />
<path d="
M 547.624 508.739
C 539.25 506.809 530.636 506.055 522.251 508.622
C 499.139 515.701 482.513 541.358 488.495 565.548
C 486.49 564.558 484.715 562.794 482.951 561.429
C 476.864 556.715 471.442 551.237 466.449 545.39
C 444.554 519.751 438.215 481.292 449.985 449.746
C 456.309 432.796 468.593 417.604 483.443 407.398
C 516.631 384.59 560.764 381.557 598.385 393.965
C 608.001 397.136 617.176 401.384 626.103 406.136
C 630.263 408.351 634.178 411.206 638.468 413.156
C 638.628 413.929 636.913 415.849 636.482 416.539
C 634.493 419.72 632.65 423.055 630.845 426.344
C 623.602 439.542 616.064 452.673 608.471 465.674
C 606.27 469.442 604.161 473.264 601.976 477.04
C 601.584 477.717 600.649 480.504 600.006 480.728
C 585.536 469.651 565.284 461.193 546.781 464.523
C 537.111 466.264 525.693 472.939 526.502 484.359
C 526.655 486.527 526.972 488.638 527.698 490.694
C 528.506 492.981 529.749 495.105 531.322 496.955
C 534.469 500.656 538.517 503.559 542.706 505.968
C 544.303 506.887 546.178 507.595 547.624 508.739 Z"
opacity="1" fill="rgb(249,219,8)" fill-rule="evenodd" />
<path d="
M 460.036 374.618
C 460.159 374 460.052 374.368 460.472 373.553
C 465.715 374.12 471.231 373.656 476.506 373.67
C 487.672 373.7 498.838 373.672 510.003 373.729
C 514.593 373.753 519.436 373.3 523.991 373.844
C 524.029 377.976 524.385 382.274 524.199 386.383
C 523.213 387.024 521.439 387.118 520.296 387.431
C 517.656 388.154 515.017 388.844 512.398 389.647
C 504.981 391.923 497.663 394.998 490.861 398.724
C 486.804 400.946 482.828 403.512 479.077 406.214
C 477.879 407.077 476.678 407.927 475.568 408.905
C 475.299 409.142 473.82 410.649 473.795 410.125
C 474.887 407.257 476.159 404.679 476.119 401.51
C 476.004 392.515 468.942 385.04 460.095 384.284
C 460.264 381.076 459.805 377.796 460.036 374.618 Z"
opacity="1" fill="rgb(8,215,236)" fill-rule="evenodd" />
<path d="
M 530.388 481.065
C 531.019 479.302 531.452 477.611 532.556 476.039
C 536.49 470.436 543.459 468.342 549.945 467.597
C 562.592 466.146 575.448 470.211 586.472 476.216
C 589.654 477.95 592.91 479.778 595.863 481.884
C 597.311 482.917 598.855 484.45 600.605 484.92
C 602.327 484.063 603.269 481.665 604.183 480.081
C 606.609 475.875 609.002 471.638 611.36 467.394
C 618.557 454.441 625.755 441.363 633.484 428.719
C 635.428 425.538 637.162 422.224 639.038 419.002
C 639.768 417.749 640.435 415.843 641.591 414.954
C 643.402 416.105 645.166 417.442 647.007 418.52
C 645.309 423.048 642.295 427.391 639.905 431.594
C 636.065 438.349 632.494 445.255 628.593 451.976
C 623.029 461.562 617.836 471.369 612.358 481.005
C 610.399 484.451 608.655 488.122 606.475 491.43
C 602.617 489.561 599.258 486.751 595.406 484.839
C 584.285 479.318 571.742 473.624 558.984 475.409
C 550.273 476.627 541.918 483.113 541.324 492.412
C 541.15 495.138 541.53 498.077 542.943 500.464
C 543.615 501.601 545.411 502.911 545.683 504.136
C 545.165 504.098 544.668 503.474 544.265 503.164
C 543.157 502.312 541.991 501.495 540.845 500.691
C 534.332 496.123 528.623 489.614 530.388 481.065 Z"
opacity="1" fill="rgb(245,217,26)" fill-rule="evenodd" />

</svg>